<svg width="24" height="24" viewBox="0 0 24 24" fill="none" xmlns="http://www.w3.org/2000/svg">
<g clip-path="url(#clip0_2_231)">
<path d="M23.1111 12C23.1111 15.0647 21.8937 18.0039 19.7266 20.171C17.5595 22.3381 14.6203 23.5556 11.5556 23.5556C8.49083 23.5556 5.55163 22.3381 3.38454 20.171C1.21746 18.0039 0 15.0647 0 12C0 8.93529 1.21746 5.99609 3.38454 3.829C5.55163 1.66192 8.49083 0.444458 11.5556 0.444458C14.6203 0.444458 17.5595 1.66192 19.7266 3.829C21.8937 5.99609 23.1111 8.93529 23.1111 12V12ZM11.5556 6.22224C11.373 6.22234 11.1925 6.26068 11.0256 6.3348C10.8588 6.40891 10.7093 6.51716 10.5868 6.65255C10.4644 6.78795 10.3716 6.9475 10.3146 7.12092C10.2575 7.29434 10.2374 7.47779 10.2556 7.65946L10.7611 12.7251C10.7781 12.9241 10.8692 13.1095 11.0163 13.2446C11.1634 13.3797 11.3558 13.4546 11.5556 13.4546C11.7553 13.4546 11.9477 13.3797 12.0948 13.2446C12.242 13.1095 12.333 12.9241 12.35 12.7251L12.8556 7.65946C12.8737 7.47779 12.8536 7.29434 12.7966 7.12092C12.7395 6.9475 12.6468 6.78795 12.5243 6.65255C12.4018 6.51716 12.2523 6.40891 12.0855 6.3348C11.9186 6.26068 11.7381 6.22234 11.5556 6.22224V6.22224ZM11.5584 14.8889C11.1754 14.8889 10.808 15.0411 10.5371 15.312C10.2662 15.5829 10.114 15.9503 10.114 16.3333C10.114 16.7164 10.2662 17.0838 10.5371 17.3547C10.808 17.6256 11.1754 17.7778 11.5584 17.7778C11.9415 17.7778 12.3089 17.6256 12.5798 17.3547C12.8507 17.0838 13.0029 16.7164 13.0029 16.3333C13.0029 15.9503 12.8507 15.5829 12.5798 15.312C12.3089 15.0411 11.9415 14.8889 11.5584 14.8889Z" fill="#1B2D22"/>
</g>
<defs>
<clipPath id="clip0_2_231">
<rect width="23.1111" height="23.1111" fill="white" transform="translate(0 0.444458)"/>
</clipPath>
</defs>
</svg>
