<svg width="329" height="313" viewBox="0 0 329 313" fill="none" xmlns="http://www.w3.org/2000/svg">
<g clip-path="url(#clip0_2_1323)">
<path d="M0.940417 257.014C3.80757 255.539 5.02476 251.623 8.13535 250.602C11.3271 249.552 14.8704 251.623 17.7917 249.353C19.063 248.36 20.0097 246.715 21.5514 246.119C22.9039 245.608 24.3104 246.175 25.6087 246.601C26.7177 246.97 27.8267 247.31 28.9357 247.679C33.3987 249.126 37.8347 250.545 42.2977 251.992C47.3558 253.609 52.3868 255.255 57.4449 256.872C57.9318 257.043 58.1482 256.22 57.6613 256.05C48.4107 253.07 39.1871 250.091 29.9365 247.112C27.7726 246.431 25.5276 245.381 23.2826 245.097C21.7137 244.899 20.4695 245.551 19.3605 246.629C17.8187 248.133 16.6556 249.524 14.4106 249.637C12.5443 249.751 10.705 249.24 8.8386 249.552C4.9977 250.176 3.80757 254.574 0.561735 256.248C0.0748598 256.532 0.480591 257.27 0.940417 257.014Z" fill="#E8E8E8"/>
<path d="M49.5467 253.439C51.4671 253.95 52.9818 251.935 54.7129 251.339C57.0391 250.516 59.5276 250.857 61.6374 252.134C62.0972 252.417 62.5029 251.68 62.0431 251.396C60.2579 250.289 58.2293 249.835 56.1736 250.119C55.281 250.233 54.4425 250.488 53.631 250.857C52.4679 251.396 51.1155 252.956 49.7631 252.616C49.2491 252.474 49.0327 253.297 49.5467 253.439Z" fill="#E8E8E8"/>
<path d="M70.4012 251.311C68.5889 249.75 66.8578 248.076 65.2349 246.289C64.4775 245.466 63.7472 244.586 63.0439 243.707C62.6382 243.196 62.2325 242.685 61.8538 242.175C61.5833 241.806 61.3128 241.437 61.0694 241.068C60.6366 240.614 60.6366 240.047 61.0964 239.422C61.421 239.564 61.935 239.224 61.6645 238.827C60.0145 236.5 58.7973 233.946 58.0129 231.166C57.8506 231.336 57.6883 231.506 57.526 231.676C58.4186 231.932 59.0678 232.414 59.5547 233.209C59.8252 233.663 60.5284 233.265 60.2579 232.783C56.2277 225.463 52.9278 217.745 50.4393 209.715C50.2229 209.857 49.9795 209.999 49.7631 210.141C61.0964 221.831 66.2357 238.089 75.7838 251.169C76.1084 251.595 76.8117 251.169 76.4871 250.744C66.9119 237.607 61.7186 221.292 50.3311 209.545C50.0606 209.261 49.5197 209.545 49.6549 209.97C52.1704 218.085 55.4703 225.86 59.5547 233.237C59.7981 233.095 60.0145 232.953 60.2579 232.811C59.6358 231.818 58.8244 231.166 57.7424 230.882C57.4449 230.797 57.1473 231.081 57.2555 231.393C58.067 234.23 59.3112 236.869 60.9883 239.252C61.1776 239.054 61.3669 238.855 61.5563 238.656C60.7989 238.287 59.9604 238.656 59.7711 239.593C59.5276 240.926 61.0694 242.402 61.7727 243.338C64.18 246.487 66.9119 249.353 69.8872 251.907C70.2389 252.247 70.8069 251.652 70.4012 251.311Z" fill="#E8E8E8"/>
<path d="M67.561 233.577C62.5841 225.775 58.5539 217.404 55.5785 208.552C55.4974 208.722 55.3892 208.892 55.308 209.062C56.2277 208.836 57.0121 209.204 57.526 210.056C57.7965 210.538 58.4457 210.112 58.2293 209.63C54.0367 200.125 49.7631 190.222 50.0606 179.525C49.8172 179.61 49.5467 179.667 49.3032 179.752C56.5252 195.358 63.3956 211.162 69.8872 227.108C70.0766 227.562 70.7798 227.222 70.6175 226.768C69.5356 223.363 68.4807 219.93 67.3988 216.525C66.8848 214.851 66.3439 213.205 65.8299 211.531C65.4783 210.424 64.7209 208.013 66.2357 207.417C66.0734 207.36 65.9381 207.275 65.7758 207.218C67.7233 211.219 69.6438 215.22 71.5913 219.22C71.8347 219.703 72.538 219.277 72.2946 218.795C70.1848 214.454 69.211 209.658 69.4004 204.778C69.1299 204.806 68.8594 204.863 68.6159 204.892C74.242 219.561 80.7608 233.861 88.0909 247.679C88.3344 248.162 89.0376 247.736 88.7942 247.254C81.4911 233.492 74.9994 219.277 69.4004 204.665C69.2381 204.239 68.6159 204.267 68.6159 204.778C68.4266 209.8 69.4545 214.709 71.6183 219.22C71.8618 219.078 72.0782 218.937 72.3216 218.795C70.3741 214.794 68.4537 210.793 66.5062 206.793C66.425 206.651 66.2086 206.537 66.0463 206.594C63.3415 207.644 65.0726 211.701 65.6676 213.602C67.0742 218.057 68.4536 222.54 69.8602 226.995C70.1036 226.881 70.347 226.768 70.5905 226.654C64.0988 210.708 57.2285 194.904 50.0065 179.298C49.8172 178.901 49.2491 179.128 49.2491 179.525C48.9246 190.364 53.2794 200.437 57.526 210.056C57.7695 209.914 57.9858 209.772 58.2293 209.63C57.526 208.467 56.39 207.956 55.0916 208.24C54.8752 208.296 54.74 208.552 54.8212 208.75C57.8235 217.66 61.8808 226.115 66.8848 233.975C67.1553 234.457 67.8586 234.031 67.561 233.577Z" fill="#E8E8E8"/>
<path d="M14.113 288.424C23.4718 283.685 33.3446 278.862 44.0288 279.997C49.0869 280.536 53.9827 282.068 59.0137 282.749C61.5563 283.09 64.1259 283.231 66.6685 282.919C69.0487 282.607 71.2938 281.699 73.6199 281.16C76.6223 280.451 79.3542 281.189 82.2484 282.04C84.6287 282.721 86.9819 283.288 89.4434 282.692C89.9573 282.579 89.7409 281.756 89.227 281.87C84.3041 283.09 79.6788 279.373 74.7019 280.11C72.2405 280.479 69.9413 281.501 67.507 281.955C64.9373 282.409 62.3136 282.352 59.717 282.011C54.6048 281.387 49.6278 279.798 44.4886 279.202C39.4305 278.607 34.4265 279.288 29.5848 280.763C24.0669 282.465 18.8465 285.076 13.7073 287.686C13.2204 287.913 13.6532 288.651 14.113 288.424Z" fill="#E8E8E8"/>
<path d="M69.0218 311.946C72.1865 310.527 75.2971 308.966 78.2995 307.207C79.8683 306.271 81.4101 305.306 82.9519 304.285C84.3313 303.348 85.7108 302.015 87.2255 301.334C88.9296 300.596 91.4992 301.986 93.2033 302.526C95.0155 303.121 96.8278 303.689 98.613 304.285C102.319 305.476 106.024 306.668 109.703 307.86C110.19 308.03 110.406 307.207 109.919 307.037C105.97 305.76 101.994 304.483 98.045 303.207C96.1516 302.582 94.2582 301.986 92.3648 301.362C90.9041 300.88 89.0649 299.887 87.5231 300.284C86.0895 300.653 84.7912 301.958 83.574 302.809C82.0052 303.888 80.3823 304.937 78.7593 305.93C75.4865 307.888 72.1054 309.647 68.6161 311.18C68.1292 311.407 68.562 312.144 69.0218 311.946Z" fill="#E8E8E8"/>
<path d="M102.67 312.825C104.726 311.747 106.782 310.641 108.837 309.562C110.731 308.541 112.759 307.179 114.923 306.98C117.114 306.753 118.818 308.257 120.712 309.137C122.307 309.875 124.039 310.3 125.77 310.414C129.827 310.641 133.614 308.513 137.644 308.74C140.863 308.938 144.109 311.719 147.273 309.96C147.733 309.704 147.327 308.967 146.868 309.222C144.893 310.329 142.756 309.25 140.809 308.598C139.132 308.03 137.509 307.775 135.751 307.974C131.585 308.428 127.771 310.272 123.498 309.222C119.954 308.371 117.249 305.278 113.436 306.441C111.677 306.98 110.027 308.002 108.404 308.853C106.349 309.931 104.293 311.038 102.237 312.116C101.805 312.343 102.21 313.081 102.67 312.825Z" fill="#E8E8E8"/>
<path d="M118.467 306.668C116.79 305.136 115.275 303.434 114.031 301.476C113.463 300.596 112.949 299.66 112.462 298.724C112.218 298.241 112.002 297.759 111.813 297.276C111.65 296.879 111.488 296.51 111.353 296.113C111.109 295.687 111.218 295.29 111.677 294.921C111.921 294.808 112.164 294.694 112.408 294.581C109.432 289.984 107.566 284.764 106.944 279.259C106.7 279.373 106.484 279.458 106.241 279.571C106.728 280.224 107.214 280.876 107.728 281.557C108.026 281.955 108.594 281.444 108.377 281.047C103.671 272.222 101.156 262.292 101.101 252.191C100.858 252.304 100.642 252.389 100.398 252.503C102.237 254.063 103.644 255.993 104.51 258.291C104.753 258.177 104.996 258.064 105.24 257.95C103.13 253.269 102.697 247.991 103.942 242.997C103.671 242.997 103.428 242.997 103.157 242.997C108.702 259.653 114.22 276.28 119.765 292.935C119.927 293.446 120.712 293.219 120.549 292.708C117.763 284.168 116.384 275.202 116.465 266.15C116.222 266.264 116.005 266.349 115.762 266.463C117.412 268.023 118.44 269.981 118.818 272.279C118.899 272.761 119.63 272.648 119.603 272.166C119.522 270.435 119.413 268.676 119.332 266.945C119.116 267.058 118.926 267.2 118.71 267.314C120.144 268.278 120.414 270.832 120.874 272.421C121.361 274.123 121.848 275.826 122.362 277.557C123.362 281.075 124.39 284.565 125.391 288.083C127.42 295.092 129.448 302.128 131.477 309.137C131.639 309.647 132.424 309.449 132.261 308.91C130.07 301.362 127.907 293.786 125.716 286.239C124.661 282.55 123.579 278.862 122.524 275.173C121.983 273.272 121.442 271.4 120.901 269.499C120.549 268.335 120.144 267.285 119.143 266.604C118.899 266.434 118.521 266.661 118.521 266.973C118.602 268.704 118.71 270.463 118.791 272.194C119.062 272.166 119.332 272.109 119.576 272.081C119.197 269.64 118.061 267.512 116.303 265.867C116.032 265.611 115.627 265.782 115.599 266.179C115.518 275.287 116.898 284.338 119.711 292.964C119.981 292.878 120.225 292.822 120.495 292.737C114.95 276.081 109.432 259.454 103.887 242.799C103.752 242.43 103.211 242.373 103.103 242.799C101.805 248.048 102.292 253.524 104.482 258.404C104.672 258.83 105.402 258.518 105.213 258.064C104.293 255.624 102.86 253.552 100.885 251.907C100.615 251.68 100.182 251.822 100.182 252.219C100.236 262.462 102.778 272.563 107.566 281.501C107.782 281.33 107.999 281.16 108.215 280.99C107.728 280.337 107.241 279.685 106.728 279.004C106.511 278.72 105.997 278.947 106.024 279.316C106.646 284.991 108.54 290.353 111.596 295.063C111.867 295.461 112.408 295.205 112.327 294.723C112.191 293.928 111.299 293.645 110.677 294.127C109.541 294.978 110.65 296.993 111.055 297.957C112.597 301.561 114.896 304.71 117.736 307.292C118.304 307.604 118.872 307.009 118.467 306.668Z" fill="#E8E8E8"/>
<path d="M90.1737 243.026C89.8221 237.692 99.0456 240.756 101.615 241.267C105.835 242.09 110.027 242.912 114.247 243.735C122.659 245.381 131.098 247.027 139.51 248.672C140.024 248.786 140.241 247.963 139.727 247.849C130.07 245.948 120.441 244.076 110.785 242.175C106.051 241.238 101.318 240.302 96.5842 239.394C94.8802 239.054 92.9056 238.685 91.3098 239.621C90.0926 240.302 89.2811 241.551 89.3893 243.026C89.3893 243.565 90.2278 243.565 90.1737 243.026Z" fill="#E8E8E8"/>
<path d="M133.911 247.736C136.724 248.048 138.455 245.239 140.646 243.877C142.513 242.742 144.136 243.622 146.056 244.019C148.193 244.473 150.384 244.53 152.548 244.246C153.062 244.189 153.062 243.338 152.548 243.395C150.113 243.707 147.679 243.593 145.299 242.969C143.865 242.572 142.567 242.089 141.133 242.685C138.591 243.707 136.86 247.225 133.911 246.885C133.397 246.828 133.397 247.679 133.911 247.736Z" fill="#E8E8E8"/>
<path d="M185.493 302.298C191.985 299.915 198.531 297.532 205.239 295.829C212.244 294.07 219.304 293.361 226.499 293.588C233.613 293.815 240.672 294.666 247.759 295.347C254.873 296.056 261.987 296.737 269.1 297.447C277.269 298.241 285.465 299.036 293.633 299.858C294.147 299.915 294.147 299.064 293.633 299.007C279.054 297.588 264.475 296.17 249.869 294.723C235.831 293.361 221.711 291.346 207.727 294.382C200.045 296.056 192.634 298.78 185.25 301.476C184.79 301.646 185.006 302.469 185.493 302.298Z" fill="#E8E8E8"/>
<path d="M214.083 274.379C218.925 273.301 223.469 271.173 228.04 269.243C232.936 267.2 237.886 265.782 243.134 265.299C248.435 264.817 253.764 265.101 259.038 265.441C264.34 265.782 269.641 266.179 274.97 266.576C281.164 267.059 287.385 267.598 293.579 268.165C294.093 268.222 294.093 267.371 293.579 267.314C282.597 266.292 271.616 265.413 260.607 264.675C250.139 263.966 239.834 263.682 229.853 267.569C224.551 269.641 219.412 272.279 213.84 273.528C213.38 273.67 213.569 274.492 214.083 274.379Z" fill="#E8E8E8"/>
<path d="M276.43 241.664C280.298 238.571 284.383 235.535 288.71 233.208C290.82 232.073 293.092 231.165 295.472 230.967C298.042 230.74 300.612 231.279 303.127 231.619C308.239 232.272 313.379 232.669 318.518 233.01C321.926 233.237 326.254 233.747 328.661 230.626C328.986 230.201 328.418 229.605 328.093 230.03C325.361 233.577 319.6 232.244 315.867 231.988C310.728 231.619 305.643 231.109 300.531 230.428C298.34 230.144 296.176 229.917 293.985 230.343C291.821 230.74 289.792 231.648 287.872 232.726C283.706 235.053 279.757 237.947 275.997 240.954C275.619 241.266 276.025 242.004 276.43 241.664Z" fill="#E8E8E8"/>
<path d="M127.528 236.982C131.369 233.946 135.237 230.939 139.078 227.903C142.756 225.008 146.191 221.972 151.006 221.717C155.55 221.49 160.203 222.029 164.72 222.426C169.588 222.852 174.43 223.42 179.245 224.129C183.302 224.725 188.144 226.314 191.985 224.1C192.445 223.845 192.039 223.107 191.579 223.363C189.604 224.498 187.414 224.498 185.223 224.214C182.869 223.902 180.516 223.476 178.163 223.136C173.619 222.483 169.048 221.944 164.449 221.547C159.932 221.15 155.253 220.582 150.736 220.866C146.543 221.121 143.432 223.391 140.16 225.973C135.805 229.378 131.477 232.811 127.122 236.216C126.716 236.585 127.122 237.323 127.528 236.982Z" fill="#E8E8E8"/>
<path d="M279.703 266.973C279.947 265.101 280.298 263.285 280.812 261.469C281.056 260.618 281.299 259.766 281.624 258.915C281.813 258.404 282.327 257.553 283.03 257.752C283.382 257.865 283.544 259.142 283.571 259.397C283.625 259.851 284.22 259.993 284.356 259.511C285.627 255.17 287.088 250.403 290.983 247.878C290.766 247.764 290.577 247.622 290.36 247.509C290.36 248.218 290.333 248.956 290.333 249.665C290.333 250.062 290.901 250.261 291.091 249.892C293.498 244.643 296.122 239.139 300.991 235.961C300.801 235.79 300.585 235.649 300.395 235.478C297.961 242.089 295.121 248.53 291.902 254.773C291.686 255.17 292.227 255.68 292.551 255.283C294.364 253.013 296.203 250.743 298.583 249.098C298.394 248.899 298.205 248.701 298.015 248.502C295.013 255.141 291.74 261.611 288.142 267.91C287.872 268.392 288.575 268.818 288.846 268.335C292.416 262.036 295.716 255.567 298.718 248.928C298.881 248.587 298.529 248.076 298.15 248.332C295.716 250.034 293.823 252.332 291.956 254.659C292.173 254.829 292.389 255 292.605 255.17C295.851 248.871 298.718 242.373 301.18 235.677C301.315 235.337 300.855 235.024 300.585 235.195C295.581 238.458 292.876 244.047 290.387 249.438C290.631 249.523 290.901 249.58 291.145 249.665C291.145 248.956 291.172 248.218 291.172 247.509C291.172 247.197 290.82 246.97 290.55 247.14C286.492 249.779 284.897 254.716 283.571 259.284C283.842 259.312 284.112 259.369 284.356 259.397C284.22 257.95 282.976 255.482 281.461 257.326C280.704 258.263 280.407 259.795 280.082 260.958C279.541 262.831 279.162 264.76 278.892 266.718C278.865 267.285 279.622 267.512 279.703 266.973Z" fill="#E8E8E8"/>
<path d="M90.7148 219.078C92.8246 217.887 94.9614 216.695 97.2876 216.042C99.749 215.361 102.183 215.588 104.645 215.929C109.541 216.61 114.436 217.291 119.305 217.972C119.819 218.057 119.819 217.206 119.305 217.121C114.085 216.383 108.837 215.588 103.617 214.936C101.21 214.624 98.9105 214.624 96.5844 215.333C94.3664 216.014 92.3107 217.177 90.282 218.312C89.8222 218.624 90.255 219.334 90.7148 219.078Z" fill="#E8E8E8"/>
<path d="M255.251 26.6192C257.199 24.8884 259.931 25.2289 262.068 26.3354C263.691 27.1583 265.016 28.8323 266.909 28.9174C268.668 28.9742 270.128 27.7257 271.616 26.9029C272.617 26.3638 273.644 25.9949 274.78 26.2503C275.998 26.5057 277.053 27.2434 278.162 27.7541C281.813 29.4282 284.248 27.1015 287.331 25.2572C288.197 24.7465 289.116 24.2925 290.117 24.2074C291.388 24.0939 292.524 24.6898 293.66 25.2005C295.446 25.9949 296.798 26.3071 298.61 25.541C300.477 24.7749 301.991 24.8884 303.858 25.5977C305.048 26.0517 306.184 26.6192 307.428 26.9029C309.295 27.3569 311.296 27.2434 312.703 25.7396C313.081 25.3423 312.486 24.7465 312.135 25.1437C310.322 27.0732 307.563 26.1652 305.481 25.314C303.371 24.4628 301.207 23.5548 298.962 24.4344C297.555 25.0019 296.609 25.3991 295.094 24.86C294.066 24.4911 293.119 23.8953 292.065 23.5832C290.469 23.0724 288.981 23.3562 287.52 24.1223C285.843 25.0019 284.383 26.3922 282.625 27.1299C280.298 28.0946 278.486 26.8178 276.376 25.8815C274.835 25.2005 273.374 25.087 271.832 25.7963C269.966 26.6759 268.154 28.6053 265.963 27.7825C264.8 27.3569 263.88 26.3638 262.825 25.7396C261.932 25.2289 260.959 24.86 259.958 24.6614C258.037 24.2925 256.171 24.633 254.656 25.9666C254.278 26.3922 254.873 26.988 255.251 26.6192Z" fill="#E8E8E8"/>
<path d="M264.989 45.9983C265.503 45.9983 265.503 45.1471 264.989 45.1471C264.475 45.1471 264.475 45.9983 264.989 45.9983Z" fill="#E8E8E8"/>
<path d="M270.399 49.0911C271.67 46.6793 274.672 47.8427 276.539 48.6371C278.405 49.4316 280.082 49.914 282.056 49.2046C283.679 48.6088 285.14 47.4738 286.817 47.0766C289.143 46.5091 290.469 48.5804 292.578 49.0627C295.878 49.8288 299.205 45.97 302.316 47.5873C303.181 48.0413 303.776 48.6371 304.804 48.552C305.751 48.4953 306.617 48.0129 307.536 47.7859C310.106 47.1617 312.784 47.6441 315.083 48.9776C315.543 49.233 315.948 48.4953 315.489 48.2399C314.028 47.3887 312.459 46.878 310.809 46.7077C309.971 46.6226 309.105 46.651 308.267 46.7928C307.266 46.9347 306.346 47.3887 305.372 47.5873C304.047 47.8427 303.479 47.1617 302.397 46.6793C301.856 46.4524 301.261 46.3389 300.693 46.3672C299.341 46.424 298.042 47.0198 296.798 47.5022C295.202 48.1264 293.498 48.7223 291.875 47.871C290.496 47.1617 289.414 46.0835 287.791 46.0835C284.437 46.1119 282.084 49.4883 278.54 48.4669C275.916 47.7008 271.697 45.0053 269.749 48.6371C269.452 49.1479 270.155 49.5735 270.399 49.0911Z" fill="#E8E8E8"/>
<path d="M244.162 83.0544C246.082 81.4655 248.273 81.5506 250.383 82.5721C251.546 83.1395 252.79 83.6786 254.007 82.9125C254.71 82.4586 255.17 81.7492 256.009 81.4939C256.901 81.2101 257.848 81.4087 258.714 81.6357C260.255 82.033 261.743 82.7423 263.339 82.8558C265.232 82.9977 266.964 82.1464 268.803 81.9478C270.777 81.7492 272.157 82.9977 273.996 83.2814C275.781 83.5368 277.161 82.033 278.946 82.3167C281.11 82.6572 283.247 83.4233 285.384 83.9907C285.897 84.1326 286.114 83.3098 285.6 83.1679C283.355 82.5721 281.029 81.6641 278.73 81.4087C276.782 81.1817 275.376 82.8558 273.428 82.2316C271.616 81.6641 270.318 80.8413 268.37 81.125C266.287 81.4371 264.394 82.2883 262.257 81.806C260.607 81.4371 259.011 80.6143 257.307 80.5008C256.685 80.4724 256.036 80.5292 255.441 80.7845C254.683 81.0966 254.278 81.7492 253.574 82.1748C251.952 83.1679 249.761 81.0683 248.029 80.9264C246.38 80.7845 244.865 81.3804 243.566 82.4302C243.161 82.799 243.756 83.3949 244.162 83.0544Z" fill="#E8E8E8"/>
<path d="M89.0919 21.143C89.6058 21.143 89.6058 20.2918 89.0919 20.2918C88.5779 20.2918 88.5779 21.143 89.0919 21.143Z" fill="#E8E8E8"/>
<path d="M91.4719 21.7955C91.9588 19.2703 95.1505 20.8876 96.3136 21.6537C97.639 22.5332 99.0455 23.3277 100.668 22.8454C102.427 22.3063 103.617 20.7173 105.564 20.6038C107.404 20.5187 109.189 21.3983 110.92 21.9658C112.408 22.4481 113.976 22.7886 115.518 22.3914C117.33 21.9374 118.872 20.6038 120.711 20.2633C124.336 19.6107 127.609 22.7035 131.287 21.5118C131.774 21.3415 131.585 20.5187 131.071 20.6889C127.23 21.9658 123.579 18.3907 119.684 19.6675C117.682 20.3201 116.005 21.7955 113.814 21.7104C111.785 21.6253 109.946 20.6038 108.026 20.0931C106.511 19.6959 104.969 19.5824 103.509 20.2917C102.67 20.6889 101.94 21.3415 101.101 21.7672C99.7217 22.4481 98.5586 22.0509 97.3144 21.3132C95.962 20.4903 94.7989 19.5256 93.1489 19.6675C91.9858 19.7526 90.958 20.3768 90.7416 21.6253C90.6063 22.1076 91.3908 22.3346 91.4719 21.7955Z" fill="#E8E8E8"/>
<path d="M93.9335 187.47C97.1523 186.051 100.398 188.577 103.644 188.747C105.321 188.832 106.944 188.406 108.594 188.066C110.677 187.64 112.462 187.612 114.463 188.491C115.681 189.031 116.79 189.371 118.034 188.86C118.737 188.577 119.332 188.094 120.035 187.839C120.82 187.555 121.631 187.498 122.47 187.498C125.364 187.555 128.258 188.605 131.017 187.243C131.477 187.016 131.071 186.278 130.611 186.505C127.663 187.952 124.39 186.363 121.28 186.704C119.792 186.874 118.818 187.782 117.439 188.208C115.789 188.718 114.166 187.243 112.543 186.988C109.054 186.42 105.754 188.463 102.237 187.725C99.4244 187.13 96.5843 185.399 93.7171 186.676C93.2573 186.874 93.4737 187.697 93.9335 187.47Z" fill="#E8E8E8"/>
<path d="M35.4543 145.675C37.8146 145.675 39.728 143.668 39.728 141.192C39.728 138.716 37.8146 136.709 35.4543 136.709C33.0941 136.709 31.1807 138.716 31.1807 141.192C31.1807 143.668 33.0941 145.675 35.4543 145.675Z" fill="#0A3871"/>
<path d="M284.22 114.861C285.878 114.861 287.223 113.451 287.223 111.712C287.223 109.973 285.878 108.562 284.22 108.562C282.562 108.562 281.218 109.973 281.218 111.712C281.218 113.451 282.562 114.861 284.22 114.861Z" fill="#0A3871"/>
<path d="M257.199 5.14011C258.424 5.14011 259.417 4.09844 259.417 2.81346C259.417 1.52849 258.424 0.486816 257.199 0.486816C255.974 0.486816 254.981 1.52849 254.981 2.81346C254.981 4.09844 255.974 5.14011 257.199 5.14011Z" fill="#0A3871"/>
<path d="M159.499 206.906C161.023 206.906 162.258 205.61 162.258 204.012C162.258 202.413 161.023 201.118 159.499 201.118C157.976 201.118 156.74 202.413 156.74 204.012C156.74 205.61 157.976 206.906 159.499 206.906Z" fill="#0A3871"/>
<path d="M32.3168 42.5369C34.0646 42.5369 35.4815 41.0506 35.4815 39.2171C35.4815 37.3837 34.0646 35.8974 32.3168 35.8974C30.569 35.8974 29.1521 37.3837 29.1521 39.2171C29.1521 41.0506 30.569 42.5369 32.3168 42.5369Z" fill="#0A3871"/>
<path d="M141.431 159.011C142.432 159.011 143.243 158.16 143.243 157.11C143.243 156.06 142.432 155.209 141.431 155.209C140.43 155.209 139.619 156.06 139.619 157.11C139.619 158.16 140.43 159.011 141.431 159.011Z" fill="#0A3871"/>
<path d="M312.486 175.184C314.01 175.184 315.245 173.888 315.245 172.29C315.245 170.692 314.01 169.396 312.486 169.396C310.963 169.396 309.727 170.692 309.727 172.29C309.727 173.888 310.963 175.184 312.486 175.184Z" fill="#0A3871"/>
<path d="M11.7599 223.022C12.8952 223.022 13.8156 222.057 13.8156 220.866C13.8156 219.675 12.8952 218.709 11.7599 218.709C10.6246 218.709 9.70422 219.675 9.70422 220.866C9.70422 222.057 10.6246 223.022 11.7599 223.022Z" fill="#0A3871"/>
<path d="M95.827 55.4469C93.4737 60.469 91.0935 65.4912 88.7402 70.5133C98.4777 84.2179 108.215 97.894 117.953 111.599C120.468 107.598 122.957 103.512 125.472 99.3978C131.396 89.6372 137.049 79.9902 142.459 70.4282C140.619 65.5196 138.753 60.5825 136.914 55.6739C135.724 55.0213 134.533 54.397 133.343 53.7444C121.821 53.7728 110.298 53.8012 98.8023 53.8296C97.7745 54.397 96.8007 54.9361 95.827 55.4469Z" fill="white"/>
<path d="M89.0647 70.7404C91.1204 66.002 93.2302 61.2919 95.3941 56.6103C95.6105 56.1279 94.9343 55.6739 94.6908 56.1847C92.5269 60.8663 90.4171 65.5764 88.3614 70.3148C88.145 70.7971 88.8483 71.2511 89.0647 70.7404Z" fill="black"/>
<path d="M88.5237 71.2511C98.0448 84.9556 107.755 98.4899 117.655 111.911C117.98 112.336 118.548 111.74 118.223 111.315C108.377 97.9508 98.721 84.4732 89.2269 70.8255C88.9294 70.3999 88.2261 70.8255 88.5237 71.2511Z" fill="black"/>
<path d="M95.5835 56.1279C96.7195 55.5036 97.8285 54.851 98.9646 54.2268C99.4244 53.9715 99.0187 53.2337 98.5588 53.4891C97.4228 54.1133 96.3138 54.7659 95.1778 55.3901C94.6909 55.6739 95.1237 56.3832 95.5835 56.1279Z" fill="black"/>
<path d="M99.6407 54.2835C108.08 54.2835 116.546 54.2835 124.985 54.2835C125.499 54.2835 125.499 53.4323 124.985 53.4323C116.546 53.4323 108.08 53.4323 99.6407 53.4323C99.1268 53.4323 99.1268 54.2835 99.6407 54.2835Z" fill="black"/>
<path d="M142.837 70.3431C141.133 65.6047 139.375 60.923 137.563 56.213C137.373 55.7023 136.589 55.9293 136.778 56.44C138.591 61.1216 140.349 65.8317 142.053 70.5701C142.242 71.0808 143.027 70.8538 142.837 70.3431Z" fill="black"/>
<path d="M141.945 70.7687C134.019 84.3882 125.932 97.9224 117.682 111.343C117.385 111.797 118.088 112.223 118.385 111.769C126.635 98.348 134.723 84.8421 142.648 71.1944C142.918 70.7404 142.215 70.2864 141.945 70.7687Z" fill="black"/>
<path d="M137.076 55.3335C136.129 54.7093 135.183 54.0567 134.236 53.4324C133.803 53.1487 133.397 53.858 133.83 54.1702C134.777 54.7944 135.724 55.447 136.67 56.0712C137.13 56.3833 137.536 55.6456 137.076 55.3335Z" fill="black"/>
<path d="M133.316 53.3473C126.257 53.3473 119.197 53.3473 112.164 53.3473C111.65 53.3473 111.65 54.1985 112.164 54.1985C119.224 54.1985 126.284 54.1985 133.316 54.1985C133.83 54.1985 133.83 53.3473 133.316 53.3473Z" fill="black"/>
<path d="M89.3894 71.166C94.2311 68.9812 99.0728 66.7964 103.914 64.6116C104.401 64.3846 103.969 63.6753 103.509 63.8739C98.667 66.0587 93.8253 68.2435 88.9836 70.4283C88.5238 70.6553 88.9295 71.393 89.3894 71.166Z" fill="black"/>
<path d="M95.7185 55.8725C98.6939 56.3549 101.615 57.0358 104.509 57.8871C105.023 58.0289 105.24 57.2061 104.726 57.0642C101.832 56.1846 98.9103 55.532 95.9349 55.0497C95.421 54.9646 95.1776 55.7874 95.7185 55.8725Z" fill="black"/>
<path d="M104.293 57.7453C104.942 59.8733 105.51 62.0013 105.997 64.1861C106.105 64.7252 106.89 64.4982 106.782 63.9591C106.295 61.7744 105.727 59.6463 105.077 57.5183C104.915 57.0076 104.131 57.2062 104.293 57.7453Z" fill="black"/>
<path d="M105.537 57.8303C112.786 57.8303 120.008 57.8303 127.257 57.8303C127.771 57.8303 127.771 56.9791 127.257 56.9791C120.008 56.9791 112.786 56.9791 105.537 56.9791C105.023 56.9791 105.023 57.8303 105.537 57.8303Z" fill="black"/>
<path d="M126.906 58.0006C126.635 59.5612 126.365 61.1501 126.094 62.7107C126.013 63.2498 126.798 63.4768 126.879 62.9377C127.149 61.3771 127.42 59.7882 127.69 58.2276C127.771 57.6885 126.987 57.4615 126.906 58.0006Z" fill="black"/>
<path d="M106.43 64.2427C112.759 64.2427 119.089 64.2427 125.445 64.2427C125.959 64.2427 125.959 63.3915 125.445 63.3915C119.116 63.3915 112.786 63.3915 106.43 63.3915C105.916 63.3915 105.916 64.2427 106.43 64.2427Z" fill="black"/>
<path d="M128.042 57.8304C130.99 57.1778 133.911 56.5252 136.86 55.8726C137.374 55.7591 137.157 54.9362 136.643 55.0497C133.695 55.7023 130.774 56.3549 127.825 57.0075C127.312 57.121 127.528 57.9438 128.042 57.8304Z" fill="black"/>
<path d="M126.689 63.9874C129.421 64.4414 131.964 66.0587 134.452 67.2787C137.103 68.5839 139.727 69.8891 142.378 71.1943C142.837 71.4213 143.27 70.6836 142.783 70.4566C139.97 69.0663 137.184 67.7044 134.371 66.314C131.991 65.1223 129.529 63.6185 126.906 63.1646C126.392 63.0794 126.175 63.9023 126.689 63.9874Z" fill="black"/>
<path d="M106.673 65.548C110.19 80.7563 113.679 95.9931 117.195 111.201C117.331 111.741 118.088 111.514 117.98 110.974C114.463 95.7661 110.974 80.5294 107.458 65.321C107.323 64.7819 106.538 65.0089 106.673 65.548Z" fill="black"/>
<path d="M125.553 66.5694C122.253 81.2103 119.521 96.0214 117.412 110.918C117.33 111.457 118.115 111.684 118.196 111.145C120.306 96.2484 123.038 81.4657 126.338 66.7964C126.473 66.2573 125.689 66.0303 125.553 66.5694Z" fill="black"/>
<path d="M125.824 38.1673C127.041 34.9044 127.717 31.4711 127.825 27.9528C127.852 27.4137 127.041 27.4137 127.014 27.9528C126.906 31.386 126.229 34.7341 125.039 37.9403C124.85 38.4511 125.634 38.6497 125.824 38.1673Z" fill="black"/>
<path d="M131.369 38.7347C133.965 35.642 136.887 32.9181 140.159 30.6198C140.592 30.3077 140.186 29.57 139.754 29.8821C136.427 32.2088 133.424 34.9894 130.801 38.1389C130.449 38.5361 131.017 39.132 131.369 38.7347Z" fill="black"/>
<path d="M136.697 43.9839C140.051 42.9341 143.514 42.5369 147.003 42.8206C147.517 42.849 147.517 41.9978 147.003 41.9694C143.432 41.6857 139.916 42.0829 136.481 43.1611C135.994 43.3313 136.183 44.1542 136.697 43.9839Z" fill="black"/>
<path d="M79.706 24.0939C80.0305 29.7119 77.0281 35.0745 72.2135 37.5147C71.943 37.6566 71.97 38.0822 72.2135 38.2524C76.6224 41.033 78.6511 46.1403 79.8142 51.1625C79.9494 51.7016 80.7068 51.4746 80.5986 50.9355C79.3814 45.6863 77.2175 40.3804 72.6192 37.5147C72.6192 37.7701 72.6192 37.997 72.6192 38.2524C77.6773 35.6704 80.869 29.9673 80.5174 24.0939C80.4904 23.5548 79.6789 23.5548 79.706 24.0939Z" fill="#E8E8E8"/>
<path d="M80.0033 24.0939C79.6517 29.9956 82.8434 35.6988 87.9015 38.2524C87.9015 37.997 87.9015 37.77 87.9015 37.5147C83.2762 40.4088 81.1123 45.7147 79.8951 50.9922C79.7599 51.5313 80.5443 51.7583 80.6795 51.2192C81.8426 46.1687 83.8713 41.033 88.3072 38.2524C88.5507 38.1105 88.5777 37.6566 88.3072 37.5147C83.4926 35.0745 80.4631 29.7119 80.7877 24.0939C80.8418 23.5548 80.0304 23.5548 80.0033 24.0939Z" fill="#E8E8E8"/>
<path d="M211.703 237.096C212.65 236.67 213.948 236.046 215.436 235.166C217.924 233.719 219.169 232.982 219.926 231.818C220.9 230.286 220.521 229.463 221.792 227.931C221.982 227.676 222.874 226.683 224.037 226.143C226.039 225.264 227.905 226.314 231.016 227.477C233.883 228.555 236.128 229.066 240.618 230.116C242.403 230.541 244.567 230.967 247.705 231.988C248.597 232.272 249.301 232.528 249.788 232.698C249.842 233.294 249.869 234.826 248.922 236.216C248.489 236.84 247.894 237.351 246.947 237.805C244.756 238.883 242.674 238.685 240.916 238.6C237.129 238.429 238.698 238.997 229.772 239.167C227.824 239.195 226.228 239.195 225.119 239.195C223.74 240.188 222.36 241.21 220.954 242.26C218.573 244.076 216.301 245.892 214.137 247.679C213.326 244.161 212.515 240.614 211.703 237.096Z" fill="black"/>
<path d="M200.424 200.777C198.476 201.856 198.26 202.253 191.011 208.722C179.705 218.795 178.461 219.334 168.209 228.726C158.39 237.692 156.551 239.933 154.685 242.884C150.032 250.346 149.005 256.589 148.707 259.625C148.301 263.71 147.76 269.385 151.196 273.868C153.359 276.677 156.172 277.841 157.119 278.209C159.959 279.344 162.285 279.202 166.478 278.89C172.05 278.465 176.297 277.33 177.974 276.847C179.813 276.308 184.087 274.975 189.442 272.194C194.473 269.584 196.637 267.654 203.508 262.802C206.564 260.646 211.081 257.497 216.761 253.865C217.113 251.027 216.815 248.814 216.518 247.424C215.815 244.132 214.381 241.863 212.785 239.366C211.487 237.323 210.243 235.762 209.377 234.741C211.406 233.123 214.056 230.797 216.842 227.676C218.709 225.576 221.657 222.228 224.119 217.518C227.148 211.73 230.177 205.885 228.23 201.856C225.173 195.528 210.621 195.245 200.424 200.777Z" fill="white"/>
<path opacity="0.18" d="M224.659 203.87C223.118 207.616 220.575 212.921 216.518 218.596C210.621 226.796 204.671 231.336 195.69 238.061C170.292 257.071 163.476 261.412 164.233 263.228C165.261 265.697 179.569 261.27 181.652 260.618C196.853 255.908 208.052 248.644 215.057 243.338C213.272 240.472 211.487 237.607 209.702 234.769C211.893 233.124 214.922 230.513 217.762 226.626C219.331 224.498 221.711 221.207 223.253 216.241C224.822 211.304 224.876 206.906 224.659 203.87Z" fill="#9B9797"/>
<path d="M200.316 200.749C190.686 208.268 181.301 216.156 172.266 224.413C167.939 228.357 163.611 232.301 159.554 236.529C155.956 240.274 152.602 244.416 150.573 249.353C148.464 254.461 147.869 260.362 148.382 265.895C148.815 270.464 150.411 275.06 154.387 277.443C158.553 279.912 163.8 279.657 168.398 279.146C174.052 278.55 179.624 277.103 184.898 274.861C196.664 269.839 205.888 260.448 217.005 254.234C217.465 253.978 217.059 253.241 216.599 253.496C207.321 258.688 199.423 266.179 190.118 271.371C185.25 274.095 180.002 276.082 174.593 277.302C169.589 278.408 163.962 279.259 158.877 278.238C156.497 277.756 154.198 276.734 152.494 274.861C150.844 273.017 149.951 270.605 149.491 268.137C148.491 262.774 148.951 256.702 150.628 251.538C152.305 246.374 155.577 242.033 159.148 238.174C162.853 234.174 166.911 230.485 170.887 226.825C180.489 217.972 190.443 209.517 200.722 201.515C201.127 201.175 200.749 200.437 200.316 200.749Z" fill="black"/>
<path d="M173.808 258.915C182.68 255.312 190.713 249.921 198.341 244.019C202.101 241.125 205.806 238.117 209.485 235.11C213.11 232.13 216.572 228.981 219.385 225.15C219.709 224.725 219.006 224.299 218.682 224.725C215.814 228.64 212.217 231.79 208.538 234.826C204.914 237.805 201.262 240.756 197.53 243.622C190.064 249.353 182.247 254.631 173.592 258.121C173.105 258.291 173.321 259.114 173.808 258.915Z" fill="black"/>
<path d="M209.079 235.025C214.3 239.621 217.059 246.743 216.329 253.865C216.274 254.404 217.086 254.404 217.14 253.865C217.87 246.544 215.003 239.167 209.647 234.429C209.269 234.06 208.701 234.656 209.079 235.025Z" fill="black"/>
<path d="M216.274 245.948C217.816 245.466 219.169 244.104 220.467 243.139C222.09 241.948 223.686 240.756 225.309 239.564C225.741 239.252 225.336 238.515 224.903 238.827C223.442 239.905 221.955 241.011 220.494 242.09C219.142 243.083 217.654 244.615 216.058 245.126C215.544 245.267 215.76 246.09 216.274 245.948Z" fill="black"/>
<path d="M211.811 237.493C214.868 236.159 217.681 234.344 220.223 232.102C220.629 231.733 220.034 231.137 219.655 231.506C217.248 233.663 214.543 235.393 211.622 236.67C211.135 236.897 211.351 237.72 211.811 237.493Z" fill="black"/>
<path d="M219.926 231.733C220.44 231.733 220.44 230.882 219.926 230.882C219.412 230.882 219.412 231.733 219.926 231.733Z" fill="black"/>
<path d="M220.9 230.712C221.36 229.577 221.846 228.328 222.712 227.449C223.875 226.257 225.282 226.427 226.769 226.768C229.528 227.42 232.233 228.328 234.938 229.151C237.453 229.889 239.969 230.542 242.566 230.854C244.08 231.024 245.352 231.223 246.704 231.932C247.705 232.443 248.57 232.953 249.679 233.067C250.193 233.124 250.193 232.272 249.679 232.216C248.192 232.074 247.029 230.996 245.622 230.513C244.216 230.031 242.647 230.059 241.186 229.804C237.994 229.265 234.884 228.243 231.8 227.279C230.286 226.825 228.771 226.371 227.229 226.002C226.093 225.746 224.903 225.434 223.767 225.803C221.792 226.427 220.846 228.64 220.115 230.485C219.926 230.996 220.71 231.222 220.9 230.712Z" fill="black"/>
<path d="M225.2 240.189C230.989 239.281 236.723 239.139 242.566 239.025C244.594 238.997 246.758 238.742 248.381 237.351C249.76 236.16 250.545 234.429 250.166 232.585C250.058 232.045 249.274 232.272 249.382 232.811C249.896 235.394 247.678 237.295 245.487 237.862C243.242 238.43 240.807 238.146 238.508 238.203C233.964 238.288 229.474 238.685 224.984 239.394C224.47 239.451 224.713 240.274 225.2 240.189Z" fill="black"/>
<path d="M245.73 234.542C247.732 233.038 249.76 231.534 251.762 230.031C251.897 229.066 252.33 226.966 253.98 225.179C254.467 224.64 255.603 223.391 257.307 223.051C259.092 222.682 260.472 223.533 262.014 224.271C264.502 225.462 266.909 225.916 271.67 226.881C275.43 227.619 277.323 227.988 280.028 227.846C283.706 227.619 286.33 226.597 287.899 228.215C288.061 228.385 288.738 229.151 288.683 230.087C288.602 231.279 287.385 232.045 286.411 232.641C282.165 235.195 279.784 235.932 279.784 235.932C273.78 237.777 270.75 238.713 268.154 238.94C266.044 239.11 263.041 239.195 259.417 238.599C258.362 242.402 255.17 244.842 252.168 244.643C248.3 244.388 244.729 239.819 245.73 234.542Z" fill="black"/>
<path d="M206.888 209.46C207.483 207.559 208.592 205.147 210.675 204.352C212.028 203.842 213.272 204.182 213.678 204.296C216.193 204.948 221.359 204.012 231.665 202.168C236.777 201.26 243.242 199.926 250.68 197.94C250.707 199.387 250.68 201.288 250.599 203.501C250.41 208.467 249.923 212.212 249.814 213.092C249.355 216.61 248.543 222.455 246.082 229.548C245.46 231.364 244.837 232.868 244.405 233.89C245.46 234.4 246.596 235.081 247.705 236.046C252.276 239.876 253.601 245.296 254.034 247.594C253.385 248.417 252.411 249.637 251.167 251.027C246.136 256.645 241.483 259.795 232.612 265.555C227.148 269.101 223.145 271.683 216.734 275.656C208.944 280.479 202.642 284.225 194.798 286.58C192.85 287.175 189.767 287.97 185.872 287.544C183.978 287.346 180.57 286.977 177.297 284.48C173.105 281.302 171.779 276.649 171.238 274.606C170.021 270.038 170.481 265.753 171.617 261.299C172.401 258.177 175.241 247.821 185.114 236.159C187.089 233.833 192.715 228.584 203.913 218.085C206.618 215.56 208.836 213.489 210.323 212.127C209.187 211.219 208.051 210.339 206.888 209.46Z" fill="white"/>
<path opacity="0.18" d="M243.674 201.6C243.052 204.097 242.052 207.7 240.537 211.928C226.715 250.346 195.825 266.945 198.341 271.087C200.18 274.152 217.816 266.519 230.529 258.489C240.05 252.474 247.137 246.033 251.87 241.181C251.113 240.018 249.95 238.429 248.192 236.925C246.487 235.478 244.865 234.599 243.647 234.06C244.486 232.783 245.595 230.853 246.542 228.385C247.164 226.796 247.705 225.093 248.408 221.632C249.544 216.156 250.004 211.815 250.139 210.453C250.464 207.19 250.761 202.962 250.707 197.968C248.354 199.16 246.028 200.38 243.674 201.6Z" fill="#9B9797"/>
<path d="M250.301 197.94C250.328 203.303 250.004 208.665 249.301 213.999C248.651 218.795 247.84 223.732 246.163 228.271C244.351 233.18 241.24 236.755 237.48 240.132C233.639 243.565 229.771 246.941 225.904 250.318C221.468 254.205 217.005 258.064 212.569 261.951C212.163 262.292 212.731 262.887 213.137 262.547C221.278 255.454 229.42 248.388 237.507 241.21C241.078 238.032 244.324 234.741 246.271 230.172C248.164 225.746 249.084 220.894 249.814 216.127C250.734 210.112 251.167 204.04 251.113 197.94C251.113 197.372 250.301 197.372 250.301 197.94Z" fill="black"/>
<path d="M207.348 210.254C208.457 210.878 209.566 211.503 210.702 212.127C211.162 212.382 211.568 211.645 211.108 211.389C209.999 210.765 208.89 210.141 207.754 209.516C207.294 209.261 206.888 209.999 207.348 210.254Z" fill="black"/>
<path d="M210.702 211.786C201.073 220.015 190.957 228.158 182.923 238.145C175.999 246.743 170.292 257.638 170.319 269.186C170.319 274.265 171.644 279.571 175.215 283.175C178.785 286.807 183.951 288.225 188.82 287.97C194.771 287.658 200.424 285.189 205.725 282.465C211.406 279.543 216.788 276.081 222.198 272.648C233.342 265.555 245.784 258.943 254.142 248.133C254.467 247.707 253.899 247.112 253.574 247.537C246.569 256.617 236.723 262.433 227.337 268.392C222.171 271.683 217.059 275.031 211.784 278.153C206.618 281.217 201.235 284.139 195.528 285.87C190.172 287.487 184.195 287.828 179.137 285.019C174.268 282.352 171.779 277.188 171.265 271.57C170.265 260.22 175.701 248.928 182.274 240.302C190.47 229.548 201.181 220.979 211.297 212.354C211.676 212.042 211.108 211.446 210.702 211.786Z" fill="black"/>
<path d="M244.215 234.23C249.301 236.783 252.844 241.834 253.682 247.679C253.764 248.218 254.548 247.991 254.467 247.452C253.628 241.408 249.896 236.102 244.648 233.492C244.161 233.265 243.756 234.003 244.215 234.23Z" fill="black"/>
<path d="M245.838 234.968C246.92 234.514 247.786 233.748 248.706 233.01C249.787 232.13 250.896 231.279 251.978 230.399C252.384 230.059 251.978 229.321 251.573 229.662C250.599 230.428 249.625 231.194 248.651 231.988C247.705 232.754 246.758 233.691 245.622 234.145C245.162 234.343 245.351 235.166 245.838 234.968Z" fill="black"/>
<path d="M252.384 230.059C252.925 228.385 253.574 226.739 254.44 225.207C255.63 223.107 257.415 223.334 259.417 223.873C262.527 224.696 265.503 225.945 268.64 226.682C274.726 228.101 280.974 228.583 287.196 228.158C287.71 228.129 287.71 227.278 287.196 227.307C279.865 227.817 272.481 227.023 265.394 224.923C263.69 224.412 262.04 223.76 260.336 223.249C259.038 222.852 257.496 222.398 256.144 222.682C254.927 222.937 254.223 223.902 253.628 224.98C252.79 226.512 252.141 228.158 251.6 229.832C251.437 230.343 252.222 230.57 252.384 230.059Z" fill="black"/>
<path d="M253.547 243.763C255.576 242.146 257.577 240.529 259.606 238.911C260.012 238.571 259.606 237.833 259.2 238.174C257.172 239.791 255.17 241.408 253.141 243.026C252.736 243.366 253.141 244.104 253.547 243.763Z" fill="black"/>
<path d="M259.579 238.713C266.179 240.217 272.914 239.082 279.162 236.585C282.002 235.45 285.248 234.173 287.683 232.244C289.387 230.91 289.63 228.356 287.385 227.449C286.898 227.25 286.682 228.073 287.169 228.271C288.386 228.754 288.521 230.144 287.683 231.109C287.277 231.591 286.709 231.903 286.168 232.244C285.059 232.896 283.923 233.492 282.787 234.06C280.379 235.251 277.891 236.273 275.321 237.067C270.263 238.599 264.962 239.11 259.768 237.918C259.282 237.777 259.065 238.599 259.579 238.713Z" fill="black"/>
<path d="M189.09 116.167C193.202 112.592 199.342 108.279 207.538 105.725C211.379 104.534 216.193 103.058 222.577 103.626C232.368 104.505 239.103 109.556 241.484 111.4C245.216 114.266 247.759 117.302 249.328 119.43C249.625 139.32 250.031 159.238 250.545 179.128C250.707 185.257 250.869 191.414 251.059 197.543C247.218 200.04 241.835 202.849 235.019 204.494C219.06 208.325 205.779 203.218 200.397 200.749C200.37 195.727 200.072 188.18 198.612 179.128C196.231 164.26 192.526 158.274 190.199 145.477C189.036 138.866 187.927 128.935 189.09 116.167Z" fill="#0A3871"/>
<path d="M237.994 121.075C236.669 122.608 236.425 124.338 236.507 130.978C236.561 137.958 236.912 142.725 237.129 148.257C237.291 152.258 237.426 155.436 237.345 159.579C237.264 164.799 236.939 169.084 236.642 171.949C233.991 175.071 231.638 177.511 229.88 179.27C225.931 183.214 221.63 187.47 215.274 191.471C212.758 193.031 210.594 194.166 209.133 194.875C207.808 194.648 206.32 194.308 204.698 193.882C200.857 192.861 199.261 191.953 196.367 191.953C195.501 191.953 192.769 191.953 192.499 192.974C192.255 193.826 193.77 195.159 194.96 195.812C196.069 196.408 196.556 196.237 197.665 196.777C198.909 197.401 199.721 198.309 200.207 198.99C199.694 199.756 198.909 200.919 198.044 202.423C197.043 204.182 196.826 204.863 195.663 206.963C194.446 209.176 193.824 210.282 193.283 210.85C192.444 211.673 191.931 211.843 188.171 213.602C184.438 215.361 183.789 215.759 183.789 216.241C183.789 216.723 184.519 216.837 187.413 218.142C189.767 219.192 189.983 219.419 191.2 219.788C192.715 220.242 193.635 220.525 194.744 220.27C196.502 219.901 197.638 218.511 198.125 217.773C198.368 218 198.963 218.482 199.748 218.511C200.37 218.511 200.884 218.255 201.289 217.915C202.993 216.638 203.832 214.283 205.509 211.644C205.807 211.19 206.861 209.516 208.565 207.644C209.62 206.452 210.594 205.572 211.297 204.977C212.244 204.75 213.651 204.409 215.328 203.898C221.846 201.941 226.553 199.586 230.502 197.599C232.801 196.436 235.398 194.904 240.564 191.868C245.054 189.229 247.38 187.754 249.436 184.86C249.652 184.547 250.761 182.987 251.735 180.689C252.033 179.979 253.087 177.454 253.655 173.028C253.926 171.07 253.926 169.992 253.953 163.863C254.007 156.06 254.007 156.997 254.007 156.202C253.98 144.767 253.412 145.789 253.223 135.291C253.196 134.298 253.169 131.602 252.384 128.197C251.546 124.509 250.491 122.863 249.896 122.04C249.138 120.99 248.219 119.742 246.65 119.032C243.783 117.699 239.969 118.777 237.994 121.075Z" fill="white"/>
<path opacity="0.25" d="M246.677 119.004C247.326 121.246 248.111 124.48 248.652 128.396C249.301 133.134 249.544 138.355 248.084 152.003C246.866 163.409 246.271 169.112 244.702 174.446C242.457 182.051 240.834 187.584 235.885 191.953C232.693 194.762 229.204 196.067 222.198 198.649C217.059 200.55 212.65 201.685 209.62 202.395C207.456 205.459 204.238 209.346 199.666 213.035C196.096 215.929 192.661 217.915 189.821 219.277C190.227 219.561 191.904 220.696 194.176 220.384C196.826 220.015 198.26 218.029 198.503 217.66C199.017 218.057 199.775 218.483 200.613 218.341C202.344 218.057 203.264 215.475 203.724 214.312C204.725 211.9 206.726 208.58 211.216 204.948C214.192 204.125 218.222 202.877 222.901 201.004C229.42 198.366 233.802 195.812 238.508 193.06C246.055 188.633 247.759 186.817 249.003 185.058C251.275 181.852 252.222 178.561 252.628 177.114C253.358 174.532 253.493 171.637 253.764 165.991C253.953 161.792 253.953 158.557 253.953 156.117C253.953 151.918 253.872 148.797 253.791 146.101C253.683 142.186 253.466 137.589 252.925 132.084C252.519 128.084 252.222 126.495 251.356 124.707C250.031 121.87 248.056 120.054 246.677 119.004Z" fill="#9B9797"/>
<path d="M237.589 120.962C236.182 124.65 236.02 128.623 236.101 132.567C236.182 136.908 236.399 141.221 236.588 145.562C236.967 154.358 237.237 163.182 236.236 171.949C236.182 172.489 236.994 172.489 237.048 171.949C238.021 163.381 237.805 154.727 237.426 146.129C237.237 141.873 237.021 137.617 236.912 133.333C236.804 129.219 236.885 125.076 238.373 121.189C238.562 120.678 237.778 120.451 237.589 120.962Z" fill="black"/>
<path d="M237.805 171.212C235.317 172.659 233.315 174.759 231.395 176.943C229.312 179.298 227.229 181.597 224.903 183.696C220.142 188.038 214.787 191.613 209.052 194.393C208.566 194.62 208.998 195.358 209.458 195.131C214.976 192.464 220.142 189.059 224.768 184.945C227.067 182.93 229.177 180.717 231.205 178.419C233.315 176.007 235.425 173.567 238.184 171.978C238.671 171.666 238.265 170.928 237.805 171.212Z" fill="black"/>
<path d="M209.242 194.45C206.266 193.797 203.264 193.116 200.289 192.407C198.801 192.066 197.286 191.641 195.772 191.357C194.825 191.187 193.824 191.102 192.985 191.669C191.687 192.549 191.687 194.166 192.85 195.131C193.689 195.84 194.771 196.152 195.772 196.493C197.394 197.032 198.774 197.713 199.829 199.16C200.153 199.585 200.857 199.16 200.532 198.734C199.585 197.457 198.449 196.549 196.989 196.01C195.988 195.641 194.879 195.414 193.959 194.875C193.31 194.507 192.472 193.939 192.958 192.918C193.418 191.953 194.581 192.038 195.42 192.18C197.665 192.52 199.91 193.201 202.155 193.74C204.454 194.28 206.753 194.79 209.052 195.301C209.539 195.386 209.756 194.563 209.242 194.45Z" fill="black"/>
<path d="M199.18 199.302C197.989 201.6 196.772 203.87 195.582 206.168C194.987 207.275 194.473 208.467 193.77 209.545C193.04 210.652 192.066 211.219 190.93 211.786C188.793 212.836 186.494 213.688 184.438 214.908C183.518 215.475 182.923 216.496 183.708 217.49C184.682 218.71 186.602 218.227 187.9 218C189.686 217.688 191.39 217.064 193.013 216.27C196.394 214.567 199.261 211.9 201.316 208.609C201.614 208.155 200.911 207.729 200.613 208.183C198.801 211.134 196.285 213.517 193.337 215.163C191.931 215.929 190.416 216.553 188.874 216.922C188.009 217.149 187.089 217.348 186.169 217.376C185.331 217.433 185.114 217.546 184.709 216.667C184.195 216.156 184.249 215.816 184.844 215.645C185.033 215.56 185.195 215.475 185.385 215.39C187.116 214.539 188.874 213.716 190.605 212.865C191.958 212.212 193.283 211.645 194.203 210.368C195.285 208.864 196.042 207.076 196.908 205.431C197.908 203.53 198.909 201.629 199.883 199.756C200.126 199.245 199.423 198.82 199.18 199.302Z" fill="black"/>
<path d="M211.541 205.516C218.763 203.388 225.768 200.55 232.476 197.032C235.803 195.273 239.049 193.372 242.214 191.272C245.054 189.399 248.056 187.498 250.085 184.633C250.383 184.179 249.679 183.753 249.382 184.207C247.272 187.215 243.972 189.172 240.997 191.102C237.967 193.06 234.83 194.876 231.638 196.55C225.119 199.926 218.33 202.65 211.324 204.721C210.837 204.835 211.054 205.658 211.541 205.516Z" fill="black"/>
<path d="M238.129 121.728C240.375 117.103 246.136 118.153 248.976 121.444C252.384 125.417 252.546 131.233 252.925 136.284C253.737 147.321 253.899 158.444 253.25 169.481C252.925 174.844 252.168 180.518 248.76 184.775C248.435 185.2 249.003 185.796 249.328 185.37C252.384 181.512 253.439 176.631 253.872 171.751C254.44 165.509 254.44 159.181 254.386 152.911C254.332 146.356 254.034 139.774 253.466 133.248C253.033 128.339 252.195 122.92 248.327 119.657C245.027 116.876 239.509 116.961 237.399 121.302C237.183 121.785 237.886 122.21 238.129 121.728Z" fill="black"/>
<path d="M187.17 218.482C189.145 219.419 191.525 220.837 193.77 220.837C195.934 220.809 197.53 218.936 198.99 217.518C203.183 213.432 207.375 209.346 211.568 205.289C211.947 204.92 211.379 204.324 211 204.693C207.456 208.154 203.913 211.588 200.37 215.049C198.801 216.553 197.178 218.709 195.203 219.646C192.877 220.752 189.686 218.766 187.603 217.773C187.116 217.518 186.71 218.255 187.17 218.482Z" fill="black"/>
<path d="M198.179 217.887C199.071 219.646 201.046 218.937 202.047 217.717C204.021 215.276 205.563 212.326 207.24 209.687C207.538 209.233 206.834 208.807 206.537 209.261C205.482 210.907 204.427 212.553 203.372 214.198C202.777 215.106 200.153 220.015 198.882 217.461C198.639 216.979 197.935 217.404 198.179 217.887Z" fill="black"/>
<path d="M191.904 216.497C192.715 216.951 193.716 217.405 194.608 216.951C195.068 216.695 195.258 216.298 195.474 215.844C195.853 215.078 196.231 214.482 196.935 214C197.367 213.688 196.962 212.95 196.529 213.262C195.88 213.716 195.339 214.283 194.96 215.021C194.69 215.56 194.527 216.213 193.824 216.27C193.31 216.326 192.742 215.986 192.309 215.759C191.876 215.532 191.444 216.241 191.904 216.497Z" fill="black"/>
<path d="M186.359 54.3687C185.412 56.3832 184.465 59.7597 184.168 60.8663C183.735 62.4552 182.761 66.1722 182.22 71.1092C181.923 73.8331 181.598 76.8123 181.869 80.7563C182.004 82.629 182.193 85.5798 183.248 89.24C183.951 91.7369 184.979 95.3404 187.765 99.029C190.2 102.235 192.986 104.25 195.204 105.47C196.61 105.498 198.314 105.413 200.208 105.044C203.616 104.363 206.266 103.03 208.052 101.951C208.295 103.399 208.62 104.931 209.025 106.52C209.864 109.811 210.892 112.705 211.92 115.202C213.029 115.003 214.354 114.663 215.761 113.982C220.224 111.797 222.36 107.768 223.118 106.094C222.712 104.448 222.387 102.661 222.09 100.817C221.062 93.9217 221.333 87.7646 221.982 82.7708C222.55 82.9694 223.469 83.2248 224.605 83.1681C226.823 83.0262 228.338 81.7494 229.095 81.0684C229.745 80.5009 232.693 77.7487 232.585 73.6628C232.558 72.6981 232.504 70.3431 230.908 69.0663C229.42 67.903 227.418 68.3286 225.958 68.6407C224.281 69.0095 223.037 69.7473 222.279 70.258C222.847 68.3002 224.037 63.278 222.279 57.433C221.901 56.1846 219.385 48.2399 211.974 44.8067C201.912 40.0967 189.821 47.0766 186.359 54.3687Z" fill="white"/>
<path opacity="0.24" d="M216.923 54.5389C217.14 57.1777 217.302 61.0082 216.923 65.548C215.76 79.3092 210.567 88.8712 209.215 91.2546C207.159 94.8864 203.643 100.164 198.016 105.356C199.693 105.129 201.614 104.732 203.67 103.966C209.323 101.866 213.11 98.2629 215.165 95.9079C215.328 99.0574 215.841 102.888 217.059 107.087C217.6 108.875 218.195 110.52 218.817 111.996C220.25 110.038 221.657 108.08 223.091 106.094C222.793 104.25 222.523 102.292 222.333 100.277C221.711 94.1771 221.711 88.5591 222.036 83.5653C223.253 83.5937 225.011 83.4802 226.877 82.7141C235.046 79.3092 239.698 65.7749 235.289 58.3978C235.1 58.0856 234.126 56.4967 232.125 55.078C225.931 50.7085 218.059 54.0282 216.923 54.5389Z" fill="#9B9797"/>
<path d="M184.384 60.0151C183.843 58.0573 183.086 54.312 183.87 49.7154C184.113 48.2967 184.952 43.7286 187.927 40.1251C192.282 34.876 197.746 35.869 204.833 33.2019C209.323 31.5279 215.49 28.0095 221.738 19.7244C221.17 22.7887 220.602 25.8815 220.034 28.9458C221.008 29.2296 224.281 29.9673 227.635 28.2365C233.207 25.3707 233.693 18.4475 233.721 18.1354C234.397 19.7244 235.614 23.2427 235.073 27.7258C234.694 30.7901 233.639 33.0884 232.882 34.4787C233.207 34.8476 234.938 36.7203 236.939 36.4365C239.374 36.096 241.646 32.6061 240.997 28.0946C241.538 29.7687 242.187 32.5209 242.024 35.8974C241.808 40.0116 240.51 43.1044 239.644 44.7784C239.861 44.977 241.24 46.2822 243.188 46.0268C244.892 45.7999 246.352 44.4947 246.92 42.6504C246.785 44.5514 246.46 47.3037 245.406 50.4532C243.972 54.7092 242.782 55.0497 242.187 58.0857C241.24 62.8525 243.674 64.4698 243.025 68.7259C242.484 72.301 240.266 74.5425 237.453 77.4082C232.341 82.6006 226.472 85.4096 221.549 86.9702C221.765 85.3813 222.008 83.7923 222.225 82.2034C222.847 82.6006 223.929 83.1397 225.281 83.083C228.04 82.9695 229.771 80.3875 230.691 78.9972C231.746 77.4366 233.504 74.7695 232.557 71.9037C231.773 69.5771 229.69 68.6124 229.501 68.5272C227.067 67.449 223.929 68.4137 221.9 71.0241C220.764 66.3425 219.655 61.6892 218.519 57.0075C214.678 54.4539 210.864 51.9286 207.024 49.375C205.13 49.0061 199.964 48.2684 194.175 50.9639C188.333 53.6878 185.358 58.3127 184.384 60.0151Z" fill="#0A3871"/>
<path d="M183.978 59.9017C181.679 68.9245 180.3 78.5148 182.409 87.7363C184.141 95.227 188.522 103.767 195.988 106.208C196.475 106.378 196.691 105.555 196.204 105.385C188.712 102.945 184.519 94.0637 182.977 86.573C181.165 77.7771 182.545 68.6975 184.736 60.1286C184.898 59.6179 184.114 59.3909 183.978 59.9017Z" fill="black"/>
<path d="M196.583 106.066C209.052 104.732 219.466 95.2837 222.387 82.4587C222.495 81.9196 221.738 81.6926 221.603 82.2317C218.763 94.6311 208.728 103.909 196.583 105.214C196.069 105.271 196.042 106.122 196.583 106.066Z" fill="black"/>
<path d="M221.684 82.6857C227.256 86.2608 232.693 78.7701 233.045 73.5209C233.234 70.7403 232.017 68.6123 229.393 67.8178C226.959 67.0801 224.308 67.8462 222.577 69.7756C222.225 70.1728 222.793 70.7687 223.145 70.3714C224.578 68.7541 226.742 68.0448 228.825 68.5272C229.907 68.7825 231.097 69.4067 231.719 70.4282C232.395 71.5348 232.314 73.067 232.152 74.287C231.503 78.685 226.85 84.9839 222.09 81.9196C221.657 81.6642 221.224 82.4019 221.684 82.6857Z" fill="black"/>
<path d="M221.63 82.6289C220.575 90.4885 220.954 98.4615 222.739 106.179C222.874 106.718 223.659 106.491 223.523 105.952C221.765 98.3764 221.386 90.5452 222.414 82.8559C222.468 82.3168 221.684 82.0898 221.63 82.6289Z" fill="black"/>
<path d="M207.646 102.065C208.484 106.662 209.783 111.116 211.568 115.429C211.784 115.94 212.487 115.486 212.271 115.003C210.513 110.776 209.242 106.378 208.43 101.838C208.322 101.299 207.565 101.526 207.646 102.065Z" fill="black"/>
<path d="M212.136 115.542C217.356 114.663 221.765 110.889 223.74 105.754C223.929 105.243 223.145 105.016 222.955 105.527C221.089 110.407 216.842 113.897 211.919 114.72C211.406 114.805 211.622 115.628 212.136 115.542Z" fill="black"/>
<path d="M208.295 103.058C209.404 103.115 210.161 102.32 211 101.639C212.109 100.731 213.164 99.7666 214.137 98.7452C215.95 96.8441 217.41 94.6593 218.357 92.1625C218.546 91.6517 217.762 91.4247 217.573 91.9355C216.734 94.1486 215.436 96.1064 213.867 97.8088C213.164 98.6033 212.406 99.3126 211.622 100.022C210.756 100.788 209.512 102.264 208.295 102.207C207.781 102.178 207.781 103.03 208.295 103.058Z" fill="black"/>
<path d="M208.349 102.604C210.648 101.044 212.785 99.2562 214.787 97.2984C215.165 96.9296 214.597 96.3053 214.219 96.7026C212.271 98.632 210.188 100.363 207.943 101.895C207.484 102.15 207.916 102.888 208.349 102.604Z" fill="black"/>
<path d="M192.444 61.5473C190.93 68.7826 190.064 76.1314 189.875 83.537C189.875 83.9626 190.416 84.1045 190.632 83.764C191.687 82.0048 192.742 80.2173 193.797 78.4581C194.067 78.0041 193.364 77.5501 193.094 78.0325C192.039 79.7917 190.984 81.5792 189.929 83.3384C190.172 83.4235 190.443 83.4803 190.686 83.5654C190.876 76.2449 191.741 68.9529 193.229 61.8027C193.337 61.2352 192.553 61.0082 192.444 61.5473Z" fill="black"/>
<path d="M193.526 94.2055C192.877 92.9287 192.445 91.5667 192.336 90.1196C192.255 89.0982 192.472 84.9556 194.311 86.6013C195.285 87.4809 195.149 89.4103 195.176 90.6871C195.176 91.283 195.176 91.9072 195.122 92.503C195.095 92.9287 195.041 93.3543 194.96 93.7515C194.257 94.2622 193.716 94.2339 193.364 93.6948C193.013 93.2975 192.417 93.8934 192.796 94.2906C193.959 95.539 195.474 95.5958 195.799 93.638C196.042 92.2477 196.042 90.7722 195.934 89.3819C195.853 88.2753 195.853 86.6864 195.068 85.8352C193.905 84.5867 192.255 85.7501 191.795 87.0836C190.957 89.467 191.768 92.4747 192.85 94.6311C193.067 95.1134 193.77 94.6878 193.526 94.2055Z" fill="black"/>
<path d="M199.125 68.669C199.937 72.6698 204.941 72.9819 206.429 69.2933C206.618 68.7825 205.834 68.5556 205.644 69.0663C204.427 72.0739 200.532 71.5064 199.91 68.4421C199.802 67.9313 199.017 68.1299 199.125 68.669Z" fill="black"/>
<path d="M197.53 58.8234C198.557 56.4117 201.208 55.2483 203.643 55.7874C206.158 56.3549 208.079 58.3978 209.323 60.6393C209.593 61.1217 210.297 60.6961 210.026 60.2137C208.592 57.6317 206.32 55.3335 203.399 54.8795C200.775 54.4822 197.962 55.7874 196.826 58.3694C196.61 58.9086 197.313 59.3341 197.53 58.8234Z" fill="black"/>
<path d="M181.679 59.7598C182.409 58.1709 183.681 56.4401 185.547 56.4685C187.332 56.4969 188.631 58.1425 189.523 59.5896C189.794 60.0436 190.497 59.618 190.227 59.164C189.199 57.4332 187.657 55.6456 185.547 55.6173C183.383 55.5889 181.869 57.4616 181.003 59.3342C180.76 59.8166 181.463 60.2422 181.679 59.7598Z" fill="black"/>
<path d="M186.467 72.6131C186.945 72.6131 187.332 70.7457 187.332 68.4422C187.332 66.1386 186.945 64.2712 186.467 64.2712C185.989 64.2712 185.601 66.1386 185.601 68.4422C185.601 70.7457 185.989 72.6131 186.467 72.6131Z" fill="black"/>
<path d="M188.955 117.5C188.874 118.55 188.766 119.997 188.712 121.671C188.468 127.403 188.685 131.744 188.766 132.907C188.982 136.681 189.469 141.618 190.605 147.35C189.523 148.655 187.9 150.584 185.818 152.854C181.869 157.195 179.84 159.408 176.594 161.707C172.97 164.26 170.454 165.055 169.102 165.424C167.398 165.849 165.775 166.247 163.8 165.793C160.581 165.026 158.661 162.53 157.958 161.565C156.172 159.181 155.767 156.855 155.036 152.315C154.495 148.995 154.387 146.47 154.225 141.59C154.144 139.263 154.035 136.426 154.09 132.624C154.144 128.339 154.36 123.26 154.955 117.586C155.226 115.032 155.604 111.882 156.199 108.307C155.74 107.626 155.253 106.945 154.739 106.236C154.198 105.498 153.684 104.789 153.143 104.08C151.763 105.3 150.411 106.548 149.031 107.768C148.68 107.91 148.058 108.137 147.3 108.052C145.867 107.91 145.028 106.86 144.731 106.52C143.405 104.931 143.595 102.916 143.649 102.519C145.515 100.391 147.382 98.2914 149.275 96.1633C149.302 94.9433 149.464 93.3543 149.924 91.5952C150.276 90.29 150.709 89.2118 151.114 88.3038C151.466 87.5661 151.953 86.7433 152.575 85.9204C153.684 84.3882 154.874 83.31 155.848 82.5723C155.063 82.9412 154.874 82.9412 154.82 82.8844C154.685 82.6574 155.956 80.9834 157.741 80.8131C158.742 80.6996 159.526 81.0969 160.067 81.3523C160.906 81.7779 161.474 82.317 161.825 82.7142C163.503 81.2104 165.18 79.7066 166.857 78.2311C167.452 78.6 168.047 79.0256 168.642 79.4512C170.021 80.4443 171.265 81.4374 172.374 82.4021C171.969 82.9412 171.455 83.537 170.806 84.1329C169.724 85.126 168.642 85.7218 167.803 86.119C168.317 86.2893 169.237 86.6865 169.697 87.6228C170.156 88.5308 169.967 89.5239 169.697 90.7723C169.507 91.6235 169.264 92.3045 169.075 92.7585C169.183 93.9502 169.237 95.5675 168.912 97.3834C168.398 100.363 167.208 102.576 166.397 103.853C166.37 104.959 166.343 106.69 166.397 108.818C166.613 117.586 167.83 122.721 168.615 129.19C169.075 132.879 169.534 138.355 169.399 145.25C170.021 144.824 170.914 144.143 171.915 143.264C174.457 141.022 176.08 138.781 178.217 135.489C180.327 132.283 181.706 129.9 183.573 126.722C184.736 124.651 186.602 121.501 188.955 117.5Z" fill="white"/>
<path opacity="0.24" d="M164.368 91.5951C163.8 92.9003 163.232 94.2339 162.664 95.5958C161.014 99.6816 159.662 103.597 158.553 107.343C158.309 113.244 158.174 118.181 158.066 121.756C157.931 127.176 158.255 133.645 158.85 146.583C159.094 151.918 159.31 155.152 161.69 157.507C164.179 159.947 167.641 160.004 169.588 160.004C179.975 159.976 187.738 150.698 189.875 148.002C186.981 153.166 183.681 156.543 181.436 158.529C178.893 160.77 175.62 163.579 170.535 164.97C166.234 166.161 164.287 165.906 163.773 165.792C160.067 164.856 158.012 161.622 157.281 160.515C155.523 157.763 154.955 154.897 154.631 148.74C154.306 142.413 154.658 140.738 154.766 132.028C154.847 123.714 154.549 121.359 155.145 115.599C155.496 112.223 155.929 109.442 156.281 107.57C155.226 106.406 154.171 105.243 153.116 104.108C152.223 104.931 151.304 105.725 150.384 106.548C149.789 107.087 149.167 107.626 148.572 108.137C148.031 108.194 147.246 108.165 146.408 107.797C144.244 106.832 142.892 104.023 143.568 103.058C144.001 102.406 145.137 102.916 146.705 102.916C149.41 102.945 151.222 101.498 154.82 98.7737C157.363 96.8159 160.284 94.6311 164.368 91.5951Z" fill="#9B9797"/>
<path d="M188.604 117.273C182.355 126.325 177.73 136.709 169.832 144.427C169.453 144.796 170.021 145.392 170.4 145.023C178.352 137.248 183.005 126.807 189.307 117.699C189.631 117.273 188.928 116.848 188.604 117.273Z" fill="black"/>
<path d="M165.342 166.445C176.053 165.707 183.735 156.287 190.172 148.286C190.497 147.86 189.929 147.264 189.604 147.69C183.356 155.521 175.782 164.884 165.369 165.622C164.828 165.622 164.828 166.473 165.342 166.445Z" fill="black"/>
<path d="M160.257 86.5163C160.311 88.7578 161.717 90.6873 163.773 91.3115C164.287 91.4533 164.503 90.6305 163.989 90.4886C162.285 89.9779 161.122 88.3606 161.068 86.5163C161.041 85.9772 160.229 85.9772 160.257 86.5163Z" fill="black"/>
<path d="M161.095 86.2609C161.366 83.7924 165.558 85.5799 166.694 86.2041C167.803 86.8 168.912 87.3958 169.156 88.8145C169.345 89.8927 169.02 91.0277 168.75 92.0775C168.615 92.6166 169.399 92.8436 169.534 92.3045C169.913 90.8858 170.319 89.2685 169.751 87.8782C169.21 86.4595 167.722 85.8069 166.505 85.1827C165.261 84.5585 163.908 84.1045 162.502 84.2747C161.934 84.3598 161.203 84.5017 160.744 84.8989C160.257 85.2962 160.365 85.5799 160.284 86.2893C160.23 86.8 161.041 86.8 161.095 86.2609Z" fill="black"/>
<path d="M168.479 91.9073C168.398 94.0637 168.858 96.1634 168.371 98.3198C167.911 100.306 166.992 102.15 166.072 103.938C165.829 104.42 166.532 104.846 166.775 104.363C167.722 102.491 168.669 100.59 169.156 98.5467C169.67 96.3336 169.21 94.1488 169.291 91.9073C169.318 91.3398 168.506 91.3398 168.479 91.9073Z" fill="black"/>
<path d="M166.072 103.966C165.45 118.919 169.534 133.56 168.885 148.513C168.858 149.052 169.67 149.052 169.697 148.513C170.346 133.56 166.261 118.919 166.884 103.966C166.911 103.427 166.099 103.427 166.072 103.966Z" fill="black"/>
<path d="M152.791 104.278C153.603 105.47 154.468 106.605 155.442 107.655C155.794 108.052 156.362 107.456 156.01 107.059C155.09 106.037 154.252 104.987 153.494 103.852C153.17 103.398 152.467 103.824 152.791 104.278Z" fill="black"/>
<path d="M155.902 107.428C154.36 116.649 153.603 126.012 153.63 135.376C153.657 140.029 153.873 144.711 154.306 149.336C154.658 153.28 155.09 157.422 157.065 160.884C158.85 164.033 161.988 166.417 165.558 166.332C166.072 166.303 166.072 165.452 165.558 165.48C160.554 165.622 157.335 160.941 156.172 156.344C154.874 151.294 154.766 145.789 154.576 140.597C154.171 129.588 154.901 118.522 156.713 107.683C156.767 107.116 155.983 106.889 155.902 107.428Z" fill="black"/>
<path d="M150.79 94.6878C148.247 96.9293 145.786 99.2843 143.459 101.753C143.081 102.15 143.676 102.746 144.027 102.349C146.381 99.8802 148.815 97.5252 151.358 95.2836C151.763 94.9431 151.195 94.3473 150.79 94.6878Z" fill="black"/>
<path d="M143.216 102.519C142.81 105.81 145.191 108.591 148.355 108.563C148.869 108.563 148.869 107.711 148.355 107.711C145.623 107.74 143.676 105.328 144.028 102.519C144.109 101.98 143.297 101.98 143.216 102.519Z" fill="black"/>
<path d="M143.973 102.32C146.814 102.406 148.788 105.073 148.193 107.967C148.085 108.506 148.869 108.733 148.977 108.194C149.708 104.704 147.382 101.583 143.973 101.469C143.46 101.469 143.46 102.32 143.973 102.32Z" fill="black"/>
<path d="M149.302 108.052C152.385 105.101 155.523 102.179 158.526 99.1425C159.905 97.7522 161.23 96.3335 162.475 94.8013C163.151 93.9785 164.855 92.3612 164.882 91.2263C164.882 91.0844 164.801 90.9141 164.693 90.8574C164.639 90.829 164.584 90.8006 164.557 90.8006C164.395 90.7155 164.179 90.7155 164.071 90.8574C164.043 90.8858 164.016 90.9141 163.989 90.9709C163.665 91.3965 164.233 91.9923 164.557 91.5667C164.584 91.5384 164.611 91.51 164.639 91.4532C164.476 91.4816 164.314 91.51 164.152 91.51C164.098 91.2546 164.016 91.2546 163.908 91.5384C163.773 91.737 163.638 91.9356 163.475 92.1342C163.151 92.5598 162.853 92.9854 162.502 93.411C161.961 94.1204 161.366 94.8013 160.798 95.4823C159.607 96.8443 158.363 98.1211 157.092 99.3695C154.333 102.093 151.52 104.732 148.734 107.428C148.328 107.825 148.923 108.421 149.302 108.052Z" fill="black"/>
<path d="M149.654 96.2768C149.843 94.9148 150.032 93.5529 150.222 92.1909C150.357 91.1695 150.465 90.0345 151.006 89.1266C152.25 87.0269 154.008 88.5307 154.955 89.9494C155.361 90.5453 155.74 91.1979 156.145 91.7937C156.362 92.1342 157.417 93.3543 157.281 93.7799C157.417 93.6664 157.552 93.5812 157.66 93.4678C157.606 93.4678 157.579 93.4678 157.525 93.4678C157.011 93.4394 157.011 94.2906 157.525 94.319C157.579 94.319 157.606 94.319 157.66 94.319C157.849 94.319 158.012 94.1771 158.039 94.0069C158.228 93.2975 157.768 92.8719 157.417 92.3044C156.74 91.2546 156.091 90.1764 155.388 89.1549C154.658 88.1051 153.711 87.0837 152.358 87.2255C151.06 87.3674 150.276 88.4172 149.87 89.6373C149.194 91.6518 149.14 93.9501 148.842 96.0498C148.788 96.5889 149.572 96.8159 149.654 96.2768Z" fill="black"/>
<path d="M150.925 93.0706C151.655 94.5744 152.872 96.1066 154.604 96.2201C156.037 96.3336 157.39 95.4824 157.768 94.0069C157.904 93.4678 157.119 93.2409 156.984 93.78C156.632 95.1419 155.199 95.6526 154.009 95.227C152.872 94.8014 152.142 93.7516 151.628 92.6734C151.385 92.1626 150.682 92.5883 150.925 93.0706Z" fill="black"/>
<path d="M151.926 87.5377C152.061 86.1474 153.576 85.7786 154.604 86.1474C155.686 86.5163 156.524 87.5377 157.281 88.3606C157.876 89.0132 159.04 89.9211 159.202 90.8291C159.418 92.0492 157.958 92.872 156.984 93.1841C156.497 93.326 156.686 94.1488 157.2 94.0069C158.39 93.6381 160.121 92.5315 160.311 91.0561C160.392 90.4602 160.04 90.1481 159.662 89.7225C158.904 88.8713 158.174 88.0484 157.39 87.2256C156.335 86.0907 154.982 84.8706 153.359 85.1543C152.142 85.3529 151.25 86.2042 151.114 87.5093C151.06 88.0768 151.872 88.0768 151.926 87.5377Z" fill="black"/>
<path d="M153.386 85.438C153.765 84.9841 153.954 84.3882 154.306 83.9342C155.172 82.7993 156.524 83.8491 157.417 84.5301C159.148 85.8069 160.987 88.1335 159.418 90.3467C159.121 90.8007 159.824 91.2263 160.121 90.7723C161.798 88.3889 160.148 85.6367 158.228 84.1045C157.335 83.3951 155.983 82.1183 154.766 82.4872C153.684 82.7993 153.495 84.1045 152.818 84.8706C152.467 85.2394 153.035 85.8353 153.386 85.438Z" fill="black"/>
<path d="M156.118 82.8559C157.065 81.6359 158.309 80.3591 159.77 81.6359C160.744 82.4587 161.366 83.622 161.717 84.8421C161.88 85.3528 162.637 85.1542 162.502 84.6151C162.042 82.9694 160.987 81.0684 159.418 80.3874C157.822 79.7065 156.497 81.04 155.55 82.2601C155.226 82.6573 155.794 83.2815 156.118 82.8559Z" fill="black"/>
<path d="M162.096 82.9695C163.773 81.4657 165.45 79.9619 167.127 78.4865C167.533 78.1176 166.938 77.5217 166.559 77.8906C164.882 79.3944 163.205 80.8982 161.528 82.3737C161.122 82.7425 161.717 83.3384 162.096 82.9695Z" fill="black"/>
<path d="M168.074 86.6013C169.67 85.3812 171.211 84.076 172.645 82.6573C173.024 82.2885 172.456 81.6926 172.077 82.0615C170.67 83.4234 169.21 84.7003 167.668 85.8636C167.235 86.1757 167.641 86.9134 168.074 86.6013Z" fill="black"/>
<path d="M180.219 84.4733C189.241 84.4733 196.556 76.8005 196.556 67.3356C196.556 57.8706 189.241 50.1978 180.219 50.1978C171.196 50.1978 163.881 57.8706 163.881 67.3356C163.881 76.8005 171.196 84.4733 180.219 84.4733Z" stroke="black" stroke-width="3.0825" stroke-miterlimit="10"/>
<path d="M170.319 69.4352C176.323 65.4061 182.463 61.604 188.739 58.0289C189.199 57.7736 188.793 57.0359 188.333 57.2912C182.058 60.8379 175.918 64.64 169.913 68.6975C169.48 69.0096 169.886 69.7473 170.319 69.4352Z" fill="black"/>
<path d="M170.995 76.8691C175.945 73.0671 180.949 69.4068 186.061 65.8317C186.494 65.5196 186.088 64.7819 185.655 65.094C180.57 68.6691 175.539 72.3577 170.589 76.1314C170.156 76.4435 170.562 77.1813 170.995 76.8691Z" fill="black"/>
</g>
<defs>
<clipPath id="clip0_2_1323">
<rect width="328.44" height="312.36" fill="white" transform="translate(0.280029 0.307495)"/>
</clipPath>
</defs>
</svg>
